<svg width="50" height="50" viewBox="0 0 50 50" fill="none" xmlns="http://www.w3.org/2000/svg">
<rect width="50" height="50" fill="#37A9E7"/>
<rect width="50" height="50" fill="url(#paint0_radial_59_774)"/>
<path d="M25 16.466C27.7611 16.466 28.1376 16.466 29.2671 16.466C30.2711 16.466 30.7731 16.717 31.1496 16.8425C31.6516 17.0935 32.0282 17.219 32.4047 17.5955C32.7812 17.9721 33.0322 18.3486 33.1577 18.8506C33.2832 19.2271 33.4087 19.7291 33.5342 20.7331C33.5342 21.8626 33.5342 22.1136 33.5342 25.0002C33.5342 27.8867 33.5342 28.1377 33.5342 29.2672C33.5342 30.2712 33.2832 30.7733 33.1577 31.1498C32.9067 31.6518 32.7812 32.0283 32.4047 32.4048C32.0282 32.7813 31.6516 33.0323 31.1496 33.1578C30.7731 33.2833 30.2711 33.4088 29.2671 33.5343C28.1376 33.5343 27.8866 33.5343 25 33.5343C22.1135 33.5343 21.8625 33.5343 20.733 33.5343C19.729 33.5343 19.2269 33.2833 18.8504 33.1578C18.3484 32.9068 17.9719 32.7813 17.5954 32.4048C17.2189 32.0283 16.9679 31.6518 16.8424 31.1498C16.7169 30.7733 16.5914 30.2712 16.4659 29.2672C16.4659 28.1377 16.4659 27.8867 16.4659 25.0002C16.4659 22.1136 16.4659 21.8626 16.4659 20.7331C16.4659 19.7291 16.7169 19.2271 16.8424 18.8506C17.0934 18.3486 17.2189 17.9721 17.5954 17.5955C17.9719 17.219 18.3484 16.968 18.8504 16.8425C19.2269 16.717 19.729 16.5915 20.733 16.466C21.8625 16.466 22.239 16.466 25 16.466ZM25 14.5835C22.1135 14.5835 21.8625 14.5835 20.733 14.5835C19.6035 14.5835 18.8504 14.8345 18.2229 15.0855C17.5954 15.3365 16.9679 15.713 16.3404 16.3405C15.7129 16.968 15.4619 17.47 15.0854 18.2231C14.8344 18.8506 14.7089 19.6036 14.5834 20.7331C14.5834 21.8626 14.5834 22.2391 14.5834 25.0002C14.5834 27.8867 14.5834 28.1377 14.5834 29.2672C14.5834 30.3967 14.8344 31.1498 15.0854 31.7773C15.3364 32.4048 15.7129 33.0323 16.3404 33.6598C16.9679 34.2873 17.4699 34.5383 18.2229 34.9148C18.8504 35.1658 19.6035 35.2913 20.733 35.4168C21.8625 35.4168 22.239 35.4168 25 35.4168C27.7611 35.4168 28.1376 35.4168 29.2671 35.4168C30.3966 35.4168 31.1496 35.1658 31.7771 34.9148C32.4047 34.6638 33.0322 34.2873 33.6597 33.6598C34.2872 33.0323 34.5382 32.5303 34.9147 31.7773C35.1657 31.1498 35.2912 30.3967 35.4167 29.2672C35.4167 28.1377 35.4167 27.7612 35.4167 25.0002C35.4167 22.2391 35.4167 21.8626 35.4167 20.7331C35.4167 19.6036 35.1657 18.8506 34.9147 18.2231C34.6637 17.5955 34.2872 16.968 33.6597 16.3405C33.0322 15.713 32.5302 15.462 31.7771 15.0855C31.1496 14.8345 30.3966 14.709 29.2671 14.5835C28.1376 14.5835 27.8866 14.5835 25 14.5835Z" fill="#F7F6F7"/>
<path d="M25 19.6036C21.988 19.6036 19.6035 21.9881 19.6035 25.0002C19.6035 28.0122 21.988 30.3967 25 30.3967C28.0121 30.3967 30.3966 28.0122 30.3966 25.0002C30.3966 21.9881 28.0121 19.6036 25 19.6036ZM25 28.5142C23.1175 28.5142 21.486 27.0082 21.486 25.0002C21.486 23.1176 22.992 21.4861 25 21.4861C26.8826 21.4861 28.5141 22.9921 28.5141 25.0002C28.5141 26.8827 26.8826 28.5142 25 28.5142Z" fill="#F7F6F7"/>
<path d="M30.5221 20.7331C31.2153 20.7331 31.7771 20.1712 31.7771 19.4781C31.7771 18.7849 31.2153 18.2231 30.5221 18.2231C29.829 18.2231 29.2671 18.7849 29.2671 19.4781C29.2671 20.1712 29.829 20.7331 30.5221 20.7331Z" fill="#F7F6F7"/>
<defs>
<radialGradient id="paint0_radial_59_774" cx="0" cy="0" r="1" gradientUnits="userSpaceOnUse" gradientTransform="translate(51.0059 1.01563) scale(115.465)">
<stop stop-color="#F9ED32"/>
<stop offset="0.36" stop-color="#EE2A7B"/>
<stop offset="0.44" stop-color="#D22A8A"/>
<stop offset="0.6" stop-color="#8B2AB2"/>
<stop offset="0.83" stop-color="#1B2AF0"/>
<stop offset="0.88" stop-color="#002AFF"/>
</radialGradient>
</defs>
</svg>
