<svg width="110" height="51" viewBox="0 0 110 51" fill="none" xmlns="http://www.w3.org/2000/svg">
<g clip-path="url(#clip0_60_186)">
<path d="M48.4034 8.44871L55.9906 31.1415L63.6058 8.46269H72.9212L73.0758 8.63026C73.0758 8.63026 73.1741 8.71404 73.1741 8.75594C73.2321 9.02742 73.2697 9.30282 73.2865 9.57985C73.2865 19.0107 73.2865 28.4324 73.2865 37.8446C73.264 38.0015 73.2263 38.1558 73.1741 38.3054C71.0297 38.6911 68.8352 38.7147 66.6829 38.3752C66.6829 35.9873 66.8515 33.5714 66.9077 31.1555C66.9639 28.7396 66.9077 26.2398 66.9077 23.796C66.9077 21.3522 67.0622 18.9084 66.9077 16.4087C64.477 23.7262 62.0462 31.0438 59.5453 38.5429C57.241 38.6685 54.9789 38.5429 52.5201 38.5429C49.977 31.0019 47.462 23.5167 44.8908 15.9059C44.7644 23.5028 45.4528 30.9041 45.2702 38.501C43.0362 38.6267 40.9427 38.501 38.8773 38.501C38.4839 37.1045 38.4277 10.2083 38.807 8.36492C42.0526 8.32303 45.214 8.33699 48.4034 8.44871Z" fill="white"/>
<path d="M89.1493 8.46268H96.1745L103.677 30.5829H103.972C103.86 28.2089 103.734 25.8209 103.635 23.4469C103.635 22.4973 103.635 21.5477 103.635 20.6539C103.537 17.5398 103.424 14.4256 103.326 11.3115C103.326 10.4457 103.326 9.5659 103.326 8.58836H109.789C110.141 9.98484 110.155 36.9927 109.789 38.5987H100.46L92.957 16.0595C92.7164 16.5131 92.5006 16.9793 92.3107 17.456C90.9056 21.7292 89.5006 26.0164 88.0956 30.3036C87.3462 32.5752 86.5875 34.8422 85.8194 37.1045C85.6367 37.6212 85.3838 38.1099 85.145 38.6266H76.0685L75.8858 38.4311C75.8858 38.4311 75.8015 38.3473 75.8015 38.3054C75.7486 37.9772 75.7157 37.6461 75.7032 37.3139C75.7032 27.9389 75.7032 18.5732 75.7032 9.21677C75.74 9.00264 75.7965 8.79231 75.8718 8.58836C77.9103 8.44225 79.9555 8.40961 81.9977 8.4906C82.4473 15.7942 81.6043 23 81.9977 30.2757L89.1493 8.46268Z" fill="white"/>
<path d="M19.0663 20.5003H36.2358C36.4043 22.2839 36.4043 24.0792 36.2358 25.8628H19.1365C18.8613 26.7214 18.7991 27.6334 18.9553 28.5211C19.1115 29.4088 19.4814 30.2457 20.0335 30.9605C20.5857 31.6752 21.3036 32.2466 22.126 32.6259C22.9485 33.0052 23.851 33.181 24.7567 33.1385C27.7775 33.2502 30.7983 33.1385 33.8332 33.1385H36.2358C36.4041 34.8741 36.4463 36.6196 36.3622 38.3613C35.8988 38.4546 35.4293 38.5152 34.9572 38.5429C31.1496 38.5429 27.3419 38.6546 23.5343 38.5429C17.2398 38.2636 12.7436 34.6048 11.6899 28.5022C11.0044 24.824 11.1242 21.0422 12.0411 17.4141C12.5517 14.9255 13.9003 12.6842 15.8644 11.0595C17.8285 9.43487 20.2909 8.52383 22.8458 8.47664C27.0609 8.16942 31.3463 8.39286 35.6035 8.39286C35.8063 8.43163 36.0042 8.49252 36.1936 8.57441V13.6715C35.5895 13.6715 34.9853 13.7693 34.3952 13.7693C31.262 13.7693 28.1147 13.7693 24.9815 13.7693C21.1036 13.8531 19.2349 16.3109 18.8274 19.7742C18.8732 20.026 18.9536 20.2703 19.0663 20.5003Z" fill="white"/>
<path d="M5.17052 39.1712C7.70021 39.1712 9.75093 37.133 9.75093 34.6187C9.75093 32.1044 7.70021 30.0662 5.17052 30.0662C2.64083 30.0662 0.590115 32.1044 0.590115 34.6187C0.590115 37.133 2.64083 39.1712 5.17052 39.1712Z" fill="#DF1521"/>
<path d="M3.38613 25.8069C5.25624 25.8069 6.77226 24.3001 6.77226 22.4414C6.77226 20.5827 5.25624 19.0759 3.38613 19.0759C1.51602 19.0759 0 20.5827 0 22.4414C0 24.3001 1.51602 25.8069 3.38613 25.8069Z" fill="#DF1521"/>
<path d="M5.57798 15.2216C7.03682 15.2216 8.21944 14.0462 8.21944 12.5962C8.21944 11.1463 7.03682 9.97086 5.57798 9.97086C4.11914 9.97086 2.93652 11.1463 2.93652 12.5962C2.93652 14.0462 4.11914 15.2216 5.57798 15.2216Z" fill="#DF1521"/>
<path d="M11.2543 8.18338C12.5192 8.18338 13.5445 7.16427 13.5445 5.90712C13.5445 4.64998 12.5192 3.63086 11.2543 3.63086C9.98947 3.63086 8.96411 4.64998 8.96411 5.90712C8.96411 7.16427 9.98947 8.18338 11.2543 8.18338Z" fill="#DF1521"/>
<path d="M18.139 4.07772C19.2719 4.07772 20.1903 3.16489 20.1903 2.03886C20.1903 0.912829 19.2719 0 18.139 0C17.006 0 16.0876 0.912829 16.0876 2.03886C16.0876 3.16489 17.006 4.07772 18.139 4.07772Z" fill="#DF1521"/>
<path d="M21.1036 48.011L21.3705 48.807C20.6096 49.0316 19.8177 49.1353 19.0241 49.1142C16.3405 49.1142 14.6123 47.8015 14.6123 45.7906C14.6123 43.7796 16.4951 42.3692 19.2771 42.3692C19.9951 42.3407 20.7128 42.4352 21.3987 42.6485L21.0474 43.4585C20.4914 43.2701 19.9065 43.1803 19.3192 43.1931C17.2398 43.1931 15.9612 44.1846 15.9612 45.7626C15.9612 47.3407 17.1976 48.2623 19.249 48.2623C19.8729 48.2731 20.4944 48.1835 21.0895 47.997L21.1036 48.011Z" fill="white"/>
<path d="M25.9931 42.3832C23.5484 42.3832 21.778 43.7796 21.778 45.8045C21.778 47.8294 23.4359 49.1421 25.7964 49.1421C28.1569 49.1421 30.0115 47.7456 30.0115 45.6928C30.0115 43.64 28.4098 42.3832 25.9931 42.3832ZM25.9931 48.3182C25.4943 48.2749 25.0189 48.0886 24.6246 47.7818C24.2303 47.4751 23.9341 47.0611 23.772 46.5902C23.6099 46.1194 23.5888 45.6119 23.7114 45.1293C23.834 44.6468 24.0949 44.2101 24.4625 43.8721C24.8301 43.5342 25.2885 43.3096 25.782 43.2257C26.2756 43.1417 26.783 43.2021 27.2427 43.3993C27.7024 43.5966 28.0946 43.9223 28.3716 44.3369C28.6486 44.7514 28.7986 45.2371 28.8032 45.7347C28.8167 46.1008 28.7496 46.4654 28.6065 46.803C28.4634 47.1407 28.2478 47.4431 27.9748 47.6892C27.7017 47.9353 27.3778 48.1191 27.0258 48.2278C26.6738 48.3364 26.3022 48.3673 25.9369 48.3182H25.9931Z" fill="white"/>
<path d="M38.0904 42.4949V49.0304H36.8399L34.0299 45.7626C33.532 45.2 33.063 44.6128 32.6248 44.003L32.4844 43.8076V44.0589C32.4844 44.7153 32.4844 45.3856 32.4844 46.2235V49.0164H31.262V42.4809H32.667L35.4771 45.7347C35.9413 46.2671 36.373 46.8267 36.7697 47.4105L36.9243 47.6339V47.3546C36.9243 46.6145 36.9243 45.8883 36.9243 45.232V42.439L38.0904 42.4949Z" fill="white"/>
<path d="M44.9329 47.215C44.9329 48.0948 44.118 49.1421 41.7997 49.1421C41.0196 49.1499 40.2457 49.0027 39.5236 48.7092L39.8748 47.8853C40.5022 48.1648 41.1825 48.3076 41.87 48.3042C42.9378 48.3042 43.6263 47.8992 43.6263 47.2848C43.6263 46.6703 43.3593 46.4469 42.0245 46.0978C40.4087 45.6649 39.65 45.0644 39.65 44.1986C39.65 43.3328 40.8583 42.3971 42.5725 42.3971C43.237 42.3788 43.8992 42.4829 44.5255 42.7043H44.5957L44.2164 43.5143C43.6979 43.3104 43.144 43.2107 42.5865 43.221C41.4906 43.221 40.9988 43.6679 40.9988 44.1008C40.9988 44.5337 41.4344 44.9108 42.6989 45.2739C44.2726 45.7207 44.9329 46.2933 44.9329 47.215Z" fill="white"/>
<path d="M52.9697 42.4949V46.3073C52.9697 48.1087 51.7333 49.1002 49.5696 49.1002C47.4058 49.1002 46.338 48.0948 46.338 46.3073V42.4669H47.6306V46.3352C47.6013 46.6002 47.6326 46.8684 47.722 47.1198C47.8114 47.3713 47.9567 47.5994 48.1471 47.7873C48.3375 47.9752 48.568 48.1179 48.8216 48.205C49.0752 48.2921 49.3452 48.3212 49.6117 48.2902C49.8836 48.3296 50.1609 48.307 50.4227 48.2242C50.6845 48.1414 50.924 48.0005 51.1229 47.8121C51.3219 47.6238 51.4752 47.3929 51.5712 47.1371C51.6672 46.8812 51.7034 46.607 51.6771 46.3352V42.4669L52.9697 42.4949Z" fill="white"/>
<path d="M59.8263 48.1925V49.0304H54.7822V42.4949H56.0748V48.1925H59.8263Z" fill="white"/>
<path d="M65.4464 42.4949V43.3467H62.7628V49.0304H61.4702V43.3467H58.7866V42.4949H65.4464Z" fill="white"/>
<path d="M67.554 42.4949H66.2613V49.0304H67.554V42.4949Z" fill="white"/>
<path d="M76.1387 42.4949V49.0304H74.8742L72.0641 45.7626C71.561 45.2044 71.0919 44.6168 70.6591 44.003L70.5186 43.8076V44.0589C70.5186 44.7153 70.5186 45.3856 70.5186 46.2235V49.0164H69.3102V42.4809H70.7153L73.5253 45.7347C73.9903 46.2701 74.4264 46.8294 74.832 47.4105L74.9866 47.6339V47.3546C74.9163 46.6145 74.9023 45.8883 74.9023 45.232V42.439L76.1387 42.4949Z" fill="white"/>
<path d="M84.8218 45.5253V48.7371C83.9276 48.9706 83.0066 49.088 82.082 49.0863C80.9145 49.1521 79.7553 48.8543 78.7661 48.2344C78.3723 47.959 78.0515 47.5928 77.8313 47.1672C77.6111 46.7415 77.4979 46.2691 77.5016 45.7905C77.5016 43.7657 79.4405 42.4111 82.3349 42.4111C83.0911 42.3982 83.8447 42.5018 84.5689 42.7183L84.2177 43.5283C83.5972 43.3247 82.9459 43.2302 82.2928 43.249C80.1571 43.249 78.8364 44.2125 78.8364 45.7487C78.8364 47.2848 80.1009 48.2623 82.1523 48.2623C82.6246 48.2747 83.0967 48.2278 83.5573 48.1227V46.3352H81.7729V45.5253H84.8218Z" fill="white"/>
<path d="M87.8426 47.6898V47.7875C87.5127 48.6106 87.0884 49.3932 86.5781 50.1196L85.6086 50.2034V50.0917C85.9565 49.3697 86.2204 48.6108 86.3954 47.8294L87.8426 47.6898Z" fill="white"/>
<path d="M96.891 48.1925V49.0304H91.8329V42.4949H93.1255V48.1925H96.891Z" fill="white"/>
<path d="M103.045 48.1925V49.0304H97.987V42.4949H99.2796V48.1925H103.045Z" fill="white"/>
<path d="M109.677 48.011L109.944 48.8069H109.874C109.113 49.0316 108.321 49.1353 107.527 49.1142C104.858 49.1142 103.129 47.8015 103.129 45.7905C103.129 43.7796 104.998 42.3692 107.794 42.3692C108.507 42.3463 109.219 42.4406 109.902 42.6484L109.564 43.4584H109.494C108.938 43.2701 108.353 43.1803 107.766 43.1931C105.687 43.1931 104.408 44.1846 104.408 45.7626C104.408 47.3406 105.63 48.2623 107.696 48.2623C108.32 48.2718 108.941 48.1823 109.536 47.997L109.677 48.011Z" fill="white"/>
</g>
<defs>
<clipPath id="clip0_60_186">
<rect width="110" height="50.2174" fill="white"/>
</clipPath>
</defs>
</svg>
