<svg width="50" height="50" viewBox="0 0 50 50" fill="none" xmlns="http://www.w3.org/2000/svg">
<rect width="50" height="50" fill="#48C95F"/>
<rect x="4.16675" y="4.16699" width="41.6667" height="41.6667" rx="20.8333" fill="#48C95F"/>
<path d="M33.2572 16.7321C31.1992 14.6813 28.4553 13.542 25.559 13.542C19.5376 13.542 14.6596 18.4031 14.6596 24.4035C14.6596 26.3024 15.1931 28.2013 16.1078 29.7963L14.5834 35.417L20.3761 33.8979C21.9767 34.7334 23.7297 35.1891 25.559 35.1891C31.5803 35.1891 36.4584 30.328 36.4584 24.3276C36.3822 21.5173 35.3151 18.7829 33.2572 16.7321ZM30.8181 28.2772C30.5895 28.8849 29.5224 29.4925 28.9889 29.5685C28.5315 29.6444 27.9218 29.6444 27.312 29.4925C26.9309 29.3406 26.3974 29.1887 25.7876 28.8849C23.0437 27.7456 21.2907 25.0112 21.1383 24.7833C20.9858 24.6314 19.995 23.3402 19.995 21.973C19.995 20.6058 20.6809 19.9982 20.9096 19.6943C21.1383 19.3905 21.4431 19.3905 21.6718 19.3905C21.8242 19.3905 22.0529 19.3905 22.2053 19.3905C22.3578 19.3905 22.5864 19.3146 22.8151 19.8462C23.0437 20.3779 23.5773 21.7451 23.6535 21.8211C23.7297 21.973 23.7297 22.1249 23.6535 22.2768C23.5773 22.4287 23.5011 22.5806 23.3486 22.7325C23.1962 22.8844 23.0437 23.1123 22.9675 23.1883C22.8151 23.3402 22.6626 23.4921 22.8151 23.7199C22.9675 24.0238 23.5011 24.8593 24.3395 25.6188C25.4065 26.5303 26.245 26.8341 26.5498 26.986C26.8547 27.1379 27.0072 27.062 27.1596 26.91C27.312 26.7581 27.8456 26.1505 27.998 25.8467C28.1504 25.5429 28.3791 25.6188 28.6078 25.6948C28.8364 25.7707 30.2084 26.4543 30.437 26.6062C30.7419 26.7581 30.8943 26.8341 30.9706 26.91C31.0468 27.1379 31.0468 27.6696 30.8181 28.2772Z" fill="#FEFEFE"/>
</svg>
